<svg xmlns="http://www.w3.org/2000/svg" viewBox="0 0 52 60" width="104" height="120">
  <defs>
    <linearGradient id="shieldGrad" x1="0" y1="0" x2="0.3" y2="1">
      <stop offset="0%" stop-color="#1a3a5c"/>
      <stop offset="100%" stop-color="#22496e"/>
    </linearGradient>
    <clipPath id="shieldClip">
      <path d="M26 3 L5 12 L5 34 Q5 52 26 58 Q47 52 47 34 L47 12 Z"/>
    </clipPath>
  </defs>
  <!-- Shield body -->
  <path d="M26 3 L5 12 L5 34 Q5 52 26 58 Q47 52 47 34 L47 12 Z" fill="url(#shieldGrad)"/>
  <!-- Radial lines decoration -->
  <g clip-path="url(#shieldClip)" stroke="white" fill="none">
    <g opacity="0.45" stroke-width="1.2">
      <line x1="26" y1="30" x2="26" y2="-5"/>
      <line x1="26" y1="30" x2="55" y2="30"/>
      <line x1="26" y1="30" x2="26" y2="65"/>
      <line x1="26" y1="30" x2="-3" y2="30"/>
      <line x1="26" y1="30" x2="47" y2="5"/>
      <line x1="26" y1="30" x2="47" y2="55"/>
      <line x1="26" y1="30" x2="5"  y2="55"/>
      <line x1="26" y1="30" x2="5"  y2="5"/>
    </g>
    <g opacity="0.30" stroke-width="0.8">
      <line x1="26" y1="30" x2="37" y2="-2"/>
      <line x1="26" y1="30" x2="53" y2="16"/>
      <line x1="26" y1="30" x2="53" y2="44"/>
      <line x1="26" y1="30" x2="37" y2="62"/>
      <line x1="26" y1="30" x2="15" y2="62"/>
      <line x1="26" y1="30" x2="-1" y2="44"/>
      <line x1="26" y1="30" x2="-1" y2="16"/>
      <line x1="26" y1="30" x2="15" y2="-2"/>
    </g>
  </g>
</svg>
